<?xml version="1.0" standalone="no"?>
<!DOCTYPE svg PUBLIC "-//W3C//DTD SVG 20010904//EN"
 "http://www.w3.org/TR/2001/REC-SVG-20010904/DTD/svg10.dtd">
<svg version="1.0" xmlns="http://www.w3.org/2000/svg"
 width="1974.000000pt" height="1974.000000pt" viewBox="0 0 1974.000000 1974.000000"
 preserveAspectRatio="xMidYMid meet">
<metadata>
Created by potrace 1.14, written by Peter Selinger 2001-2017
</metadata>
<g transform="translate(0.000000,1974.000000) scale(0.100000,-0.100000)"
fill="#000000" stroke="none">
<path d="M10753 18774 c-3 -9 -2 -19 3 -23 5 -3 10 -19 11 -36 1 -16 4 -41 7
-55 4 -14 8 -43 11 -65 3 -22 8 -51 10 -65 3 -14 8 -41 10 -60 3 -19 8 -53 11
-75 4 -22 8 -58 10 -80 2 -22 6 -74 10 -115 3 -41 8 -172 10 -290 9 -484 14
-625 25 -645 3 -5 5 -22 4 -37 0 -16 3 -28 7 -28 4 0 8 -10 8 -22 0 -22 26
-102 67 -203 26 -64 22 -74 -25 -67 -53 8 -400 7 -507 -2 -132 -11 -203 -20
-280 -36 -27 -6 -59 -12 -70 -14 -35 -5 -109 -26 -127 -36 -10 -6 -23 -10 -28
-10 -17 0 -101 -40 -133 -63 -34 -24 -49 -18 -120 48 -26 25 -55 45 -65 46 -9
0 -168 3 -352 5 -372 4 -547 10 -600 20 -19 3 -72 23 -118 45 -46 21 -88 39
-93 39 -5 0 -9 4 -9 9 0 8 -56 33 -63 28 -2 -1 -11 5 -20 13 -31 29 -47 41
-47 36 0 -2 -19 6 -42 20 -24 13 -60 33 -80 44 -41 22 -46 35 -23 66 8 12 13
23 10 25 -2 3 5 36 16 74 43 149 56 224 75 405 12 122 5 442 -12 560 -3 19 -8
53 -10 75 -8 71 -19 144 -28 190 -6 34 -19 109 -22 130 -1 11 -3 21 -4 23 -6
6 -24 105 -22 115 5 20 -22 2 -60 -40 -24 -25 -74 -73 -113 -105 -89 -75 -93
-78 -99 -78 -3 0 -25 -13 -49 -30 -72 -48 -225 -121 -506 -240 -145 -61 -271
-115 -280 -120 -9 -5 -81 -40 -161 -78 -219 -105 -460 -250 -575 -347 -16 -14
-50 -42 -75 -63 -132 -111 -272 -270 -363 -413 -31 -48 -129 -233 -133 -249 0
-3 -8 -21 -16 -40 -18 -42 -30 -72 -34 -85 -2 -5 -13 -37 -24 -70 -12 -33 -23
-67 -25 -75 -39 -156 -55 -220 -59 -245 -2 -16 -5 -30 -6 -30 -1 0 -3 -12 -5
-26 -2 -15 -6 -44 -10 -65 -10 -59 -24 -166 -30 -229 -2 -16 -6 -50 -9 -75 -8
-54 -18 -150 -21 -205 -2 -22 -4 -40 -5 -40 -1 0 -4 -20 -5 -45 -1 -25 -5 -70
-9 -100 -8 -68 -19 -282 -20 -372 -1 -38 -4 -68 -8 -68 -4 0 -4 -10 0 -22 10
-27 9 -39 -1 -55 -5 -8 -4 -13 2 -13 7 0 7 -8 1 -25 -5 -14 -6 -25 -2 -25 4 0
7 -37 8 -83 1 -104 16 -272 24 -272 1 0 3 -16 5 -35 1 -19 3 -35 4 -35 1 0 4
-13 7 -30 5 -38 9 -56 17 -75 38 -98 43 -329 12 -530 -5 -30 -9 -57 -10 -60
-12 -44 -27 -98 -32 -110 -8 -20 -8 -20 -18 -55 -4 -16 -12 -36 -18 -43 -5 -7
-10 -45 -9 -85 0 -69 2 -85 15 -117 3 -8 11 -32 17 -52 6 -21 16 -38 21 -38 5
0 9 -8 9 -18 0 -10 6 -24 13 -30 6 -7 12 -16 12 -20 1 -7 48 -95 65 -122 8
-13 54 -111 81 -175 13 -32 49 -159 54 -196 3 -19 8 -52 12 -74 9 -55 9 -241
1 -290 -4 -22 -10 -56 -13 -75 -19 -115 -85 -363 -106 -399 -8 -14 -29 -65
-34 -81 -1 -3 -9 -22 -18 -43 -17 -40 -39 -110 -43 -137 -1 -8 -5 -31 -9 -50
-9 -45 -9 -225 0 -239 3 -6 1 -11 -5 -11 -6 0 -8 -5 -4 -12 5 -7 9 -29 11 -48
8 -107 11 -129 17 -139 4 -6 2 -11 -4 -11 -6 0 -8 -5 -5 -10 7 -11 11 -33 19
-95 8 -63 16 -96 29 -119 6 -12 10 -25 9 -30 -2 -4 1 -13 6 -20 5 -6 12 -23
16 -38 3 -15 11 -40 18 -55 6 -15 12 -35 12 -43 1 -8 4 -19 8 -25 5 -9 30 -93
30 -105 0 -3 6 -25 13 -50 18 -61 28 -135 27 -190 -1 -25 -1 -65 -1 -90 0 -66
0 -71 -2 -122 -1 -27 0 -51 4 -54 3 -3 3 -12 1 -19 -9 -23 -11 -99 -3 -121 4
-12 5 -24 2 -28 -3 -3 -7 -162 -10 -353 -5 -449 -7 -515 -16 -530 -5 -7 -4
-13 0 -13 5 0 8 -15 6 -32 -2 -18 -5 -107 -9 -198 -9 -283 -18 -465 -29 -620
-12 -166 -17 -238 -20 -295 -2 -33 -4 -60 -5 -60 -1 0 -3 -27 -5 -60 -2 -33
-6 -87 -10 -120 -3 -33 -8 -89 -11 -125 -9 -111 -12 -135 -14 -135 -1 0 -3
-20 -5 -45 -4 -59 -14 -160 -19 -185 -2 -11 -7 -49 -10 -85 -4 -36 -8 -76 -11
-90 -5 -30 -14 -97 -21 -165 -3 -27 -8 -52 -12 -55 -4 -3 -7 -23 -8 -45 0 -22
-4 -62 -8 -90 -4 -27 -8 -56 -8 -63 -1 -11 -12 -12 -47 -6 -25 5 -68 8 -96 8
-45 -1 -64 -3 -130 -18 -44 -10 -89 -26 -94 -33 -3 -5 -24 -20 -46 -35 -22
-15 -121 -109 -220 -208 -99 -100 -206 -207 -239 -238 -74 -72 -132 -157 -142
-208 -10 -50 -11 -54 -14 -56 -11 -15 -14 -128 -18 -653 -2 -462 0 -623 9
-665 7 -30 13 -59 14 -65 1 -5 3 -12 4 -15 2 -3 5 -18 7 -34 5 -26 49 -97 67
-104 4 -2 7 -8 7 -14 0 -5 52 -61 115 -124 63 -64 115 -117 115 -118 0 -2 -17
-7 -38 -11 -40 -7 -112 -44 -112 -57 0 -4 -5 -8 -10 -8 -29 0 -133 -130 -144
-180 -3 -14 -13 -56 -21 -95 -13 -59 -15 -130 -12 -440 5 -373 6 -395 16 -395
3 0 7 -10 8 -22 7 -97 42 -142 325 -427 223 -223 310 -301 337 -301 5 0 16 -6
23 -13 20 -21 166 -48 223 -42 174 18 219 48 515 346 252 253 319 332 321 378
0 24 1 24 14 -9 7 -19 14 -47 14 -62 1 -31 84 -159 133 -204 18 -17 49 -48 69
-70 21 -21 51 -52 68 -67 17 -16 31 -32 31 -36 0 -4 11 -14 25 -21 13 -7 22
-17 19 -22 -3 -4 -1 -8 5 -8 5 0 29 -21 53 -46 23 -25 72 -67 108 -93 59 -44
87 -57 145 -67 66 -12 114 -27 109 -35 -3 -5 0 -9 5 -9 6 0 11 4 11 9 0 5 32
15 70 22 39 7 70 15 70 19 0 4 10 7 23 6 20 -2 79 32 135 79 13 11 42 46 64
78 36 52 45 71 47 100 1 5 6 5 12 2 6 -4 8 -9 5 -12 -6 -6 29 -76 54 -106 37
-45 58 -66 110 -103 30 -21 56 -38 57 -36 2 1 4 2 6 1 4 -1 32 -7 107 -23 70
-16 160 -14 160 3 0 4 10 7 23 6 12 -1 27 0 32 4 6 3 18 7 27 8 34 5 43 8 48
14 3 4 23 18 45 33 22 15 76 63 121 107 l81 79 66 -70 c37 -38 69 -70 72 -70
5 0 36 -24 59 -46 17 -16 76 -46 106 -54 l25 -6 5 -840 5 -839 25 -37 c29 -43
108 -97 157 -109 30 -6 46 -6 98 5 29 6 101 65 196 159 l106 106 12 -66 c17
-93 52 -140 137 -182 50 -25 99 -32 139 -18 41 14 115 65 144 99 30 35 36 35
69 0 31 -32 120 -95 142 -100 13 -3 44 -3 123 -1 12 0 45 -1 73 -2 73 -3 125
30 260 167 l112 112 111 -113 c63 -63 134 -124 162 -140 110 -59 216 -22 305
107 l29 41 3 836 c2 577 -1 850 -8 880 -15 58 -45 101 -140 197 l-81 81 63 64
c75 78 96 103 125 149 19 31 42 101 45 138 2 15 11 7 14 -12 5 -33 96 -136
310 -350 126 -125 243 -238 259 -249 17 -12 36 -27 43 -34 21 -20 55 -37 77
-39 11 0 27 -4 35 -7 30 -13 112 -27 121 -22 5 3 6 0 4 -7 -4 -9 3 -14 17 -15
18 -2 20 0 8 7 -12 8 -11 10 5 10 41 1 206 47 218 61 6 9 30 28 52 44 22 16
52 42 68 59 15 16 27 25 27 20 0 -14 51 -67 95 -99 22 -16 42 -31 45 -34 3 -4
12 -8 20 -10 62 -16 139 -32 160 -35 14 -2 24 -8 23 -14 -2 -6 8 -5 25 4 15 7
36 14 48 14 11 0 24 3 28 7 4 4 17 8 29 10 23 2 60 10 65 13 1 2 6 3 11 4 5 0
27 13 50 28 22 15 43 22 47 17 6 -11 84 -53 99 -54 6 -1 19 -4 30 -8 11 -3 36
-9 55 -12 19 -3 47 -12 62 -19 23 -12 26 -12 21 2 -4 9 -2 13 4 9 6 -4 54 4
107 17 113 27 152 51 269 167 l78 77 112 -56 c62 -30 115 -60 119 -66 4 -6 8
-8 8 -4 0 4 53 -19 118 -51 80 -40 144 -64 204 -77 48 -10 85 -21 82 -25 -2
-4 7 -6 20 -5 16 1 22 6 18 15 -3 8 -1 12 5 8 5 -3 44 2 86 12 42 10 79 16 82
13 3 -3 5 -1 5 5 0 6 8 13 18 17 36 13 92 62 265 233 97 97 177 178 177 179 0
2 23 25 51 51 72 67 140 160 156 211 7 25 10 48 8 52 -3 5 0 12 6 15 5 4 8 13
5 21 -3 7 -1 16 4 19 6 4 10 15 10 26 0 10 4 19 10 19 6 0 9 526 9 1418 1 915
-3 1412 -9 1402 -8 -12 -10 -12 -11 5 -2 39 -10 80 -20 91 -5 6 -6 13 -4 16 6
6 -24 101 -34 108 -4 3 -21 25 -39 50 -17 25 -91 105 -165 177 -74 73 -132
135 -129 138 3 3 1 5 -5 5 -6 0 -46 36 -89 81 -85 86 -199 177 -230 182 -10 1
-25 6 -31 10 -7 5 -13 6 -13 4 0 -3 -30 3 -68 12 -64 17 -76 18 -112 10 -20
-5 -18 3 20 84 50 108 101 258 95 278 -6 17 -317 334 -448 457 -31 29 -57 57
-57 63 0 5 -4 9 -10 9 -5 0 -32 21 -59 48 -27 26 -100 94 -162 152 -62 58
-128 119 -146 137 -18 17 -33 30 -33 28 0 -2 -25 21 -55 50 -50 50 -60 65 -56
88 0 4 -3 7 -7 7 -5 0 -15 23 -22 51 -8 27 -18 52 -22 55 -4 3 -8 11 -8 18 0
8 -8 31 -17 52 -9 22 -17 41 -18 44 -1 3 -5 14 -10 25 -54 138 -75 194 -75
204 0 6 -5 11 -10 11 -6 0 -10 6 -9 13 2 11 -6 32 -62 154 -10 24 -19 45 -19
47 0 8 -93 205 -154 326 -95 187 -186 337 -242 396 -31 33 -36 51 -40 149 -4
89 -8 136 -18 185 -3 14 -7 41 -10 60 -3 19 -8 46 -11 60 -3 14 -7 39 -9 55
-3 17 -14 63 -24 102 -11 40 -17 73 -15 73 3 0 0 7 -7 15 -7 8 -10 15 -6 15 3
0 1 11 -4 25 -6 17 -6 28 3 37 46 47 99 137 201 343 93 187 120 246 118 258
-1 4 2 7 6 7 5 0 9 6 9 13 1 6 22 62 48 122 25 61 48 118 50 127 2 9 8 25 13
35 29 55 167 499 186 595 2 13 7 30 10 38 8 22 18 71 19 98 1 12 5 22 10 22 4
0 6 4 3 8 -3 4 -1 26 4 48 12 50 24 142 23 172 -1 12 2 22 6 22 3 0 6 26 5 58
0 31 3 65 8 74 5 10 4 19 -2 23 -6 4 -6 15 0 30 7 17 6 25 -1 25 -8 0 -7 5 1
15 7 8 9 15 4 15 -5 0 -9 17 -8 37 0 33 -11 104 -32 192 -10 45 -57 130 -92
168 -34 36 -52 93 -29 93 6 0 8 3 5 6 -5 4 1 37 27 144 17 71 66 299 70 324 2
17 4 31 5 31 2 0 6 22 16 85 10 63 10 67 19 145 4 39 9 79 12 90 2 11 5 53 6
92 1 40 5 73 8 73 8 0 9 492 1 505 -5 8 -9 50 -15 172 -1 24 -5 43 -8 43 -4 0
-9 19 -13 43 -10 77 -13 91 -35 177 -25 97 -74 244 -103 310 -35 77 -100 204
-119 232 -11 14 -19 30 -19 35 0 5 -8 18 -17 29 -10 11 -35 45 -57 77 -21 31
-43 57 -49 57 -6 0 -7 3 -4 7 4 3 0 11 -8 17 -8 6 -17 29 -21 51 -7 48 -12 70
-14 70 -1 0 -3 14 -5 30 -2 17 -6 39 -9 51 -3 12 -8 39 -11 60 -4 21 -8 50
-11 64 -3 14 -7 37 -10 53 -2 15 -6 42 -9 60 -3 17 -8 48 -10 67 -3 19 -7 46
-10 60 -3 14 -7 39 -9 55 -5 33 -40 225 -50 280 -3 12 -25 85 -33 105 -4 8 -7
17 -8 20 -4 20 -45 95 -77 142 -53 80 -221 244 -353 345 -31 24 -121 99 -130
109 -5 5 -28 23 -50 39 -22 16 -42 32 -45 36 -3 3 -31 25 -64 47 -64 45 -168
133 -200 171 -12 13 -36 40 -53 60 -18 20 -33 40 -33 44 0 4 -8 17 -18 27 -22
24 -75 129 -87 173 -2 4 -3 8 -5 10 -1 1 -3 9 -5 17 -2 8 -9 33 -15 55 -14 55
-21 99 -26 175 -7 108 -14 145 -38 201 -8 20 -13 39 -10 41 2 3 -2 11 -11 18
-8 7 -15 17 -15 23 0 20 -54 91 -107 142 -69 66 -80 75 -93 75 -5 0 -10 4 -10
9 0 5 -39 28 -87 51 -118 57 -125 59 -148 63 -11 2 -27 7 -35 10 -20 7 -174
47 -183 47 -4 0 -10 -7 -14 -16z m-4568 -13939 l29 -24 1 -135 c0 -130 0 -134
-17 -116 -10 11 -18 23 -18 28 0 12 -54 75 -109 128 l-44 42 29 26 c16 14 34
26 39 26 6 0 19 11 30 25 25 30 23 30 60 0z m3650 -2160 c0 -30 -2 -55 -5 -54
-3 0 -20 6 -38 12 l-33 12 32 43 c17 23 34 42 37 42 4 0 7 -25 7 -55z"/>
</g>
</svg>
